<svg width="490.688" height="490.688" xmlns="http://www.w3.org/2000/svg">

 <g>
  <title>Layer 1</title>
  <path id="svg_1" fill="#FFC107" d="m472.328,120.529l-227.115,227.136l-227.115,-227.136c-4.237,-4.093 -10.99,-3.975 -15.083,0.262c-3.992,4.134 -3.992,10.687 0,14.82l234.667,234.667c4.165,4.164 10.917,4.164 15.083,0l234.667,-234.667c4.237,-4.093 4.354,-10.845 0.262,-15.083c-4.093,-4.237 -10.845,-4.354 -15.083,-0.262c-0.089,0.086 -0.176,0.173 -0.262,0.262l-0.021,0.001z"/>
  <path fill="#ffffff" id="svg_2" d="m245.213,373.415c-2.831,0.005 -5.548,-1.115 -7.552,-3.115l-234.667,-234.667c-4.093,-4.237 -3.975,-10.99 0.262,-15.083c4.134,-3.992 10.687,-3.992 14.82,0l227.136,227.115l227.115,-227.136c4.093,-4.237 10.845,-4.354 15.083,-0.262c4.237,4.093 4.354,10.845 0.262,15.083c-0.086,0.089 -0.173,0.176 -0.262,0.262l-234.666,234.667c-1.996,2.002 -4.705,3.129 -7.531,3.136z"/>
  <g id="svg_3"/>
  <g id="svg_4"/>
  <g id="svg_5"/>
  <g id="svg_6"/>
  <g id="svg_7"/>
  <g id="svg_8"/>
  <g id="svg_9"/>
  <g id="svg_10"/>
  <g id="svg_11"/>
  <g id="svg_12"/>
  <g id="svg_13"/>
  <g id="svg_14"/>
  <g id="svg_15"/>
  <g id="svg_16"/>
  <g id="svg_17"/>
 </g>
</svg>