<svg width="426.66667" height="426.66667" xmlns="http://www.w3.org/2000/svg">

 <g>
  <title>Layer 1</title>
  <path fill="#ffffff" id="svg_1" d="m405.33203,192l-170.66406,0l0,-170.66797c0,-11.77344 -9.5586,-21.33203 -21.33594,-21.33203c-11.77344,0 -21.33203,9.55859 -21.33203,21.33203l0,170.66797l-170.66797,0c-11.77344,0 -21.33203,9.55859 -21.33203,21.33203c0,11.77735 9.55859,21.33594 21.33203,21.33594l170.66797,0l0,170.66406c0,11.77735 9.55859,21.33594 21.33203,21.33594c11.77734,0 21.33594,-9.55859 21.33594,-21.33594l0,-170.66406l170.66406,0c11.77735,0 21.33594,-9.55859 21.33594,-21.33594c0,-11.77344 -9.55859,-21.33203 -21.33594,-21.33203zm0,0"/>
 </g>
</svg>